<svg width="157" height="156" viewBox="0 0 157 156" fill="none" xmlns="http://www.w3.org/2000/svg">
<path d="M55.1 34.125C37.03 34.125 21.625 47.645 21.625 65.195C21.625 77.3045 27.293 87.4965 34.807 95.94C42.3015 104.357 51.967 111.423 60.6965 117.338L75.77 127.543C76.5762 128.088 77.527 128.379 78.5 128.379C79.473 128.379 80.4238 128.088 81.23 127.543L96.3035 117.338C105.04 111.423 114.699 104.357 122.187 95.94C129.707 87.4965 135.375 77.3045 135.375 65.195C135.375 47.645 119.97 34.125 101.9 34.125C92.579 34.125 84.3825 38.493 78.5 44.148C72.6175 38.493 64.4145 34.125 55.1 34.125Z" fill="#8C86FF"/>
<path fill-rule="evenodd" clip-rule="evenodd" d="M106.358 55.0867C106.226 55.4442 105.944 55.726 105.587 55.8583L96.3528 59.2752C95.2157 59.6959 95.2157 61.3041 96.3528 61.7248L105.587 65.1417C105.944 65.274 106.226 65.5558 106.358 65.9133L109.775 75.1472C110.196 76.2843 111.804 76.2843 112.225 75.1472L115.642 65.9133C115.774 65.5558 116.056 65.274 116.413 65.1417L125.647 61.7248C126.784 61.3041 126.784 59.6959 125.647 59.2752L116.413 55.8583C116.056 55.726 115.774 55.4442 115.642 55.0867L112.225 45.8528C111.804 44.7157 110.196 44.7157 109.775 45.8528L106.358 55.0867ZM111 51.9508L109.42 56.2198C108.957 57.4709 107.971 58.4574 106.72 58.9204L102.451 60.5L106.72 62.0796C107.971 62.5426 108.957 63.5291 109.42 64.7802L111 69.0492L112.58 64.7802C113.043 63.5291 114.029 62.5426 115.28 62.0796L119.549 60.5L115.28 58.9204C114.029 58.4574 113.043 57.4709 112.58 56.2198L111 51.9508Z" fill="white"/>
</svg>
