<svg width="120" height="26" viewBox="0 0 120 26" fill="none" xmlns="http://www.w3.org/2000/svg">
<g filter="url(#filter0_d_2_836)">
<path d="M110.996 18.5676V9.54886C110.996 8.92516 110.675 8.60083 110.033 8.57588H97.0606C96.5911 8.60083 96.1834 8.81289 95.8375 9.21206C95.4916 9.58628 95.2321 10.0353 95.0592 10.5593C94.9109 11.0582 94.8368 11.5696 94.8368 12.0936C94.8368 12.5925 94.9109 13.104 95.0592 13.6279C95.2321 14.1268 95.4916 14.5759 95.8375 14.9751C96.1834 15.3493 96.5911 15.5364 97.0606 15.5364H106.549C107.241 15.5364 107.821 15.7859 108.291 16.2848C108.785 16.7588 109.032 17.3451 109.032 18.0437C109.032 18.7422 108.785 19.3285 108.291 19.8025C107.821 20.3015 107.241 20.5509 106.549 20.5509H97.2088C95.4792 20.526 94.0461 20.0395 92.9095 19.0915C91.7976 18.1185 90.9945 17.0333 90.5003 15.8358C90.0309 14.6133 89.7961 13.3534 89.7961 12.0561C89.7961 10.8087 90.0432 9.58628 90.5374 8.38877C91.0316 7.16632 91.8346 6.08108 92.9465 5.13306C94.0584 4.16008 95.7016 3.63617 97.876 3.56133H113.443C114.135 3.56133 114.728 3.79834 115.222 4.27235C115.716 4.72141 115.975 5.29522 116 5.99376V18.5676C116 19.2661 115.741 19.8524 115.222 20.3264C114.728 20.7755 114.135 21 113.443 21C111.96 20.8753 111.145 20.0644 110.996 18.5676Z" fill="white"/>
</g>
<g filter="url(#filter1_d_2_836)">
<path d="M74.8862 3C76.171 3 77.4312 3.14969 78.6667 3.44906C79.9268 3.74844 81.1252 4.19751 82.2618 4.79626C83.3984 5.37006 84.3991 6.14345 85.264 7.11642C86.1535 8.0894 86.6353 9.24948 86.7094 10.5967V12.1684V18.5676C86.5612 20.0644 85.7458 20.8753 84.2632 21C83.5714 21 82.966 20.7755 82.4471 20.3264C81.9529 19.8524 81.7059 19.2661 81.7059 18.5676V16.921V11.7568C81.6564 10.9834 81.3599 10.3472 80.8163 9.84823C80.2974 9.32432 79.7044 8.91268 79.0373 8.61331C78.3949 8.31393 77.7154 8.0894 76.9988 7.93971C76.3069 7.79002 75.6027 7.71518 74.8862 7.71518C74.1696 7.71518 73.453 7.79002 72.7365 7.93971C72.0446 8.0894 71.3651 8.31393 70.698 8.61331C70.0556 8.91268 69.4625 9.32432 68.9189 9.84823C68.4001 10.3472 68.1159 10.9834 68.0665 11.7568V16.921V18.5676C67.9429 20.0644 67.1399 20.8753 65.6574 21C64.9655 21 64.3601 20.7755 63.8412 20.3264C63.3471 19.8524 63.1 19.2661 63.1 18.5676V12.1684V10.5967C63.1741 9.24948 63.6436 8.0894 64.5084 7.11642C65.3732 6.14345 66.3739 5.37006 67.5105 4.79626C68.6471 4.19751 69.8332 3.74844 71.0686 3.44906C72.3288 3.14969 73.6013 3 74.8862 3Z" fill="white"/>
</g>
<g filter="url(#filter2_d_2_836)">
<path d="M54.4168 18.5676V9.54886C54.4168 8.92516 54.0955 8.60083 53.4531 8.57588H40.4809C40.0114 8.60083 39.6037 8.81289 39.2578 9.21206C38.9119 9.58628 38.6524 10.0353 38.4794 10.5593C38.3312 11.0582 38.2571 11.5696 38.2571 12.0936C38.2571 12.5925 38.3312 13.104 38.4794 13.6279C38.6524 14.1268 38.9119 14.5759 39.2578 14.9751C39.6037 15.3493 40.0114 15.5364 40.4809 15.5364H49.9691C50.661 15.5364 51.2417 15.7859 51.7111 16.2848C52.2053 16.7588 52.4524 17.3451 52.4524 18.0437C52.4524 18.7422 52.2053 19.3285 51.7111 19.8025C51.2417 20.3015 50.661 20.5509 49.9691 20.5509H40.6291C38.8995 20.526 37.4664 20.0395 36.3298 19.0915C35.2179 18.1185 34.4148 17.0333 33.9206 15.8358C33.4512 14.6133 33.2164 13.3534 33.2164 12.0561C33.2164 10.8087 33.4635 9.58628 33.9577 8.38877C34.4519 7.16632 35.2549 6.08108 36.3668 5.13306C37.4787 4.16008 39.1219 3.63617 41.2963 3.56133H56.8629C57.5548 3.56133 58.1478 3.79834 58.642 4.27235C59.1362 4.72141 59.3956 5.29522 59.4203 5.99376V18.5676C59.4203 19.2661 59.1609 19.8524 58.642 20.3264C58.1478 20.7755 57.5548 21 56.8629 21C55.3804 20.8753 54.565 20.0644 54.4168 18.5676Z" fill="white"/>
</g>
<g filter="url(#filter3_d_2_836)">
<path d="M11.8204 3C12.6852 3 13.5253 3.14969 14.3407 3.44906C15.1808 3.74844 15.9839 4.18503 16.7498 4.75884C16.8734 4.88358 17.0093 5.00832 17.1575 5.13306C17.2811 5.00832 17.417 4.88358 17.5652 4.75884C18.3312 4.18503 19.1219 3.74844 19.9373 3.44906C20.7774 3.14969 21.6175 3 22.4576 3C23.3224 3 24.1625 3.14969 24.9779 3.44906C25.8181 3.74844 26.6087 4.19751 27.35 4.79626C28.116 5.37006 28.7831 6.14345 29.3514 7.11642C29.9445 8.0894 30.241 9.24948 30.241 10.5967V18.5676C30.0927 20.0644 29.2773 20.8753 27.7948 21C27.1029 21 26.4976 20.7755 25.9787 20.3264C25.4845 19.8524 25.2374 19.2661 25.2374 18.5676V10.8961C25.2374 10.2973 25.1262 9.79834 24.9038 9.39917C24.6814 8.97505 24.4343 8.65073 24.1625 8.4262C23.8908 8.17672 23.6066 8.00208 23.3101 7.90229C23.0136 7.77755 22.7171 7.71518 22.4206 7.71518C22.1241 7.71518 21.8275 7.77755 21.531 7.90229C21.2592 8.00208 20.9874 8.17672 20.7156 8.4262C20.4438 8.65073 20.1968 8.97505 19.9744 9.39917C19.752 9.79834 19.6284 10.2973 19.6037 10.8961V18.5676C19.4555 20.0644 18.6401 20.8753 17.1575 21C16.4657 21 15.8603 20.7755 15.3414 20.3264C14.8473 19.8524 14.6002 19.2661 14.6002 18.5676V10.8961C14.6002 10.2973 14.489 9.79834 14.2666 9.39917C14.0442 8.97505 13.7971 8.65073 13.5253 8.4262C13.2535 8.17672 12.9694 8.00208 12.6729 7.90229C12.3764 7.77755 12.0798 7.71518 11.7833 7.71518C11.4868 7.71518 11.1903 7.77755 10.8938 7.90229C10.622 8.00208 10.3502 8.17672 10.0784 8.4262C9.80662 8.65073 9.55953 8.97505 9.33715 9.39917C9.11476 9.79834 8.99122 10.2973 8.96651 10.8961V18.5676C8.84297 20.0644 8.03992 20.8753 6.55738 21C5.86553 21 5.26016 20.7755 4.74127 20.3264C4.24709 19.8524 4 19.2661 4 18.5676V10.5967C4.04942 9.24948 4.35828 8.0894 4.92659 7.11642C5.49489 6.14345 6.16204 5.37006 6.92802 4.79626C7.694 4.19751 8.48468 3.74844 9.30008 3.44906C10.1402 3.14969 10.9803 3 11.8204 3Z" fill="white"/>
</g>
<defs>
<filter id="filter0_d_2_836" x="85.7961" y="0.561327" width="34.2039" height="25.4387" filterUnits="userSpaceOnUse" color-interpolation-filters="sRGB">
<feFlood flood-opacity="0" result="BackgroundImageFix"/>
<feColorMatrix in="SourceAlpha" type="matrix" values="0 0 0 0 0 0 0 0 0 0 0 0 0 0 0 0 0 0 127 0" result="hardAlpha"/>
<feOffset dy="1"/>
<feGaussianBlur stdDeviation="2"/>
<feComposite in2="hardAlpha" operator="out"/>
<feColorMatrix type="matrix" values="0 0 0 0 0.137691 0 0 0 0 0.181171 0 0 0 0 0.572493 0 0 0 0.6 0"/>
<feBlend mode="normal" in2="BackgroundImageFix" result="effect1_dropShadow_2_836"/>
<feBlend mode="normal" in="SourceGraphic" in2="effect1_dropShadow_2_836" result="shape"/>
</filter>
<filter id="filter1_d_2_836" x="59.1" y="0" width="31.6095" height="26" filterUnits="userSpaceOnUse" color-interpolation-filters="sRGB">
<feFlood flood-opacity="0" result="BackgroundImageFix"/>
<feColorMatrix in="SourceAlpha" type="matrix" values="0 0 0 0 0 0 0 0 0 0 0 0 0 0 0 0 0 0 127 0" result="hardAlpha"/>
<feOffset dy="1"/>
<feGaussianBlur stdDeviation="2"/>
<feComposite in2="hardAlpha" operator="out"/>
<feColorMatrix type="matrix" values="0 0 0 0 0.137691 0 0 0 0 0.181171 0 0 0 0 0.572493 0 0 0 0.6 0"/>
<feBlend mode="normal" in2="BackgroundImageFix" result="effect1_dropShadow_2_836"/>
<feBlend mode="normal" in="SourceGraphic" in2="effect1_dropShadow_2_836" result="shape"/>
</filter>
<filter id="filter2_d_2_836" x="29.2164" y="0.561327" width="34.2039" height="25.4387" filterUnits="userSpaceOnUse" color-interpolation-filters="sRGB">
<feFlood flood-opacity="0" result="BackgroundImageFix"/>
<feColorMatrix in="SourceAlpha" type="matrix" values="0 0 0 0 0 0 0 0 0 0 0 0 0 0 0 0 0 0 127 0" result="hardAlpha"/>
<feOffset dy="1"/>
<feGaussianBlur stdDeviation="2"/>
<feComposite in2="hardAlpha" operator="out"/>
<feColorMatrix type="matrix" values="0 0 0 0 0.137691 0 0 0 0 0.181171 0 0 0 0 0.572493 0 0 0 0.6 0"/>
<feBlend mode="normal" in2="BackgroundImageFix" result="effect1_dropShadow_2_836"/>
<feBlend mode="normal" in="SourceGraphic" in2="effect1_dropShadow_2_836" result="shape"/>
</filter>
<filter id="filter3_d_2_836" x="0" y="0" width="34.241" height="26" filterUnits="userSpaceOnUse" color-interpolation-filters="sRGB">
<feFlood flood-opacity="0" result="BackgroundImageFix"/>
<feColorMatrix in="SourceAlpha" type="matrix" values="0 0 0 0 0 0 0 0 0 0 0 0 0 0 0 0 0 0 127 0" result="hardAlpha"/>
<feOffset dy="1"/>
<feGaussianBlur stdDeviation="2"/>
<feComposite in2="hardAlpha" operator="out"/>
<feColorMatrix type="matrix" values="0 0 0 0 0.137691 0 0 0 0 0.181171 0 0 0 0 0.572493 0 0 0 0.6 0"/>
<feBlend mode="normal" in2="BackgroundImageFix" result="effect1_dropShadow_2_836"/>
<feBlend mode="normal" in="SourceGraphic" in2="effect1_dropShadow_2_836" result="shape"/>
</filter>
</defs>
</svg>
